<svg xmlns="http://www.w3.org/2000/svg" viewBox="0 0 48.09 51.79"><defs><style>.cls-1{fill:#d3a874;}</style></defs><title>cake_2</title><g id="Слой_2" data-name="Слой 2"><g id="Слой_1-2" data-name="Слой 1"><path class="cls-1" d="M42.88,15.31a4.94,4.94,0,0,0,.18-4.5,6.11,6.11,0,0,0-4.78-3.53c.14-2,0-6-3-7-2.35-.71-3.49,0-3.69.11a1.06,1.06,0,0,0-.28,1.45,1,1,0,0,0,1.4.27,3,3,0,0,1,2,.14c1.84.56,1.7,4.28,1.49,5.7a18.19,18.19,0,0,1-9.73.88,1,1,0,0,0-.47,1.94,17.32,17.32,0,0,0,3.76.37,19.66,19.66,0,0,0,7.74-1.55,1,1,0,0,0,.4-.33,4.13,4.13,0,0,1,3.39,2.43c.64,1.27-.1,2.63-.83,3.79l-.1.15a1,1,0,0,0-.1.87l0,.11a1,1,0,0,0,1.08.68,5.22,5.22,0,0,1,.6,0c3,0,4.12,2.65,4.12,5.12a5.09,5.09,0,0,1-1.16,3.24h-.44a6.84,6.84,0,0,0-3.8-1.09,6.48,6.48,0,0,0-3.79,1.09h-.51A6.72,6.72,0,0,0,32.4,24.5a6.45,6.45,0,0,0-3.89,1.15H28a6.51,6.51,0,0,0-3.88-1.15,6.82,6.82,0,0,0-3.87,1.15h-.55a6.58,6.58,0,0,0-3.82-1.09,6.48,6.48,0,0,0-3.86,1.09H11.6A6.7,6.7,0,0,0,7.75,24.5a6.66,6.66,0,0,0-3.92,1.15H3.21a5.09,5.09,0,0,1-1.16-3.24c0-2.48,1.08-5.12,4.12-5.12a5.21,5.21,0,0,1,.6,0,1,1,0,0,0,.34,0,39.12,39.12,0,0,0,9.34,1.25,23.52,23.52,0,0,0,3.84-.3,1,1,0,0,0-.33-2c-5.34.89-11.64-.73-12.47-1h0c-1.36-1.25-1.81-2.47-1.39-3.74A3.16,3.16,0,0,1,9.89,9.27,1,1,0,0,0,11.15,8.1c0-.05-.81-5.06,2.23-5.8a3.29,3.29,0,0,1,1.23-.18,2.62,2.62,0,0,1,.29.31c.14.17.31.36.52.56a1,1,0,1,0,1.45-1.45c-.17-.17-.3-.32-.41-.45-.88-1-1.51-1.28-3.56-.79-3.61.87-4,4.76-3.89,6.84a5.13,5.13,0,0,0-4.84,3.8,4.89,4.89,0,0,0,.68,4.43C1.9,16,0,18.67,0,22.42a7.14,7.14,0,0,0,2,5,1,1,0,0,0,.68.3,2.28,2.28,0,0,0,.11.75l7.89,22.43a1.37,1.37,0,0,0,1.29.92H36.33a1.37,1.37,0,0,0,1.29-.92L45.5,28.49a1.87,1.87,0,0,0,.15-.85,1,1,0,0,0,.42-.25,7.14,7.14,0,0,0,2-5C48.09,18.51,46,15.77,42.88,15.31Zm-19,10.5-.11.07Zm-.23.18-.11.15A1,1,0,0,1,23.63,26ZM13.14,49.79a1,1,0,0,1-.94-.67L4.69,27.8a.26.26,0,0,1,0-.09.41.41,0,0,1,.13-.25,4.12,4.12,0,0,1,3-1c1.77,0,2.94.75,3,1.11l0,.09v0a2.93,2.93,0,0,0,0,.47l5.19,21.57Zm5.06.06L12.87,27.71l0-.1a.31.31,0,0,1,.06-.08l.09-.09a4.18,4.18,0,0,1,2.92-.88c1.87,0,2.95.76,3.06,1.15a.35.35,0,0,1,0,.06h0s0,.07,0,.11l1.75,22Zm8.27-11.52-1,11.46H22.82L21,27.71v0a.76.76,0,0,1,.21-.26,4.31,4.31,0,0,1,2.13-.85,1,1,0,0,1,.1-.32,1.05,1.05,0,0,0-.1.32,5.7,5.7,0,0,1,.8-.06,4.44,4.44,0,0,1,2.94.91.76.76,0,0,1,.21.29v0Zm1.09,11.46,1.75-21.86v-.11h0v-.11c0-.34,1.13-1.18,3.09-1.18a4.34,4.34,0,0,1,2.94.91.48.48,0,0,1,.17.29h0l-1.63,6.84L30.2,49.79ZM43.68,27.67l0,0L36.12,49.12a1,1,0,0,1-.94.67H32.26l2.24-9.2.82-3.46,2.07-8.55.2-.87v0c.1-.41,1.21-1.13,3-1.13a4.4,4.4,0,0,1,2.94.95c.08.1.11.17.11.15l.09,0h0Z"/></g></g></svg>