<?xml version="1.0" encoding="iso-8859-1"?>
<!-- Generator: Adobe Illustrator 19.0.0, SVG Export Plug-In . SVG Version: 6.00 Build 0)  -->
<svg version="1.1" id="Capa_1" xmlns="http://www.w3.org/2000/svg" xmlns:xlink="http://www.w3.org/1999/xlink" x="0px" y="0px"
	 viewBox="0 0 512 512" style="enable-background:new 0 0 512 512;" xml:space="preserve">
<g>
	<path style="fill:#FCC63D;" d="M84.446,317.403H13.082C5.649,317.403,0,312.348,0,303.724c0-2.378,39.246-146.295,39.246-146.295
		c3.568-7.434,10.11-10.11,16.354-10.11c6.839,0,23.99,4.614,23.99,13.536c0,1.487,0.073,4.603-0.82,6.386L49.655,281.423h34.791
		v-31.221c0-8.622,9.812-12.191,19.327-12.191c9.814,0,19.328,3.568,19.328,12.191v31.221h13.975
		c8.029,0,12.192,8.921,12.192,18.138c0,8.92-5.949,17.842-12.192,17.842h-13.975v35.087c0,8.029-9.515,12.191-19.328,12.191
		c-9.515,0-19.327-4.163-19.327-12.191V317.403z"/>
	<path style="fill:#FCC63D;" d="M390.515,199.571c6.446-23.746,11.462-42.142,11.462-42.142c3.568-7.434,10.11-10.11,16.354-10.11
		c6.839,0,23.99,4.614,23.99,13.536c0,1.487,0.073,4.603-0.82,6.386l-29.114,114.182h34.791v-31.221
		c0-8.622,9.812-12.191,19.327-12.191c9.814,0,19.328,3.568,19.328,12.191v31.221h13.975c8.029,0,12.192,8.921,12.192,18.138
		c0,8.92-5.949,17.842-12.192,17.842h-13.975v35.087c0,8.029-9.515,12.191-19.328,12.191c-9.515,0-19.327-4.163-19.327-12.191
		v-35.087h-71.365c-7.433,0-13.082-5.055-13.082-13.679c0-1.191,9.84-37.869,19.666-74.197L390.515,199.571z"/>
</g>
<circle style="fill:#F9572B;" cx="256.009" cy="263.073" r="88.481"/>
<path style="fill:#FFFFFF;" d="M267.088,263.076l30.777-30.777c3.06-3.06,3.06-8.023,0-11.082c-3.062-3.06-8.023-3.06-11.083,0
	l-30.777,30.777l-30.777-30.777c-3.062-3.06-8.023-3.06-11.083,0c-3.06,3.06-3.06,8.023,0,11.082l30.777,30.777l-30.777,30.777
	c-3.06,3.06-3.06,8.023,0,11.082c1.531,1.53,3.537,2.296,5.542,2.296s4.011-0.765,5.542-2.296l30.777-30.777l30.777,30.777
	c1.531,1.53,3.537,2.296,5.542,2.296s4.011-0.765,5.542-2.296c3.06-3.06,3.06-8.023,0-11.082L267.088,263.076z"/>
<g>
</g>
<g>
</g>
<g>
</g>
<g>
</g>
<g>
</g>
<g>
</g>
<g>
</g>
<g>
</g>
<g>
</g>
<g>
</g>
<g>
</g>
<g>
</g>
<g>
</g>
<g>
</g>
<g>
</g>
</svg>
