<svg xmlns="http://www.w3.org/2000/svg" viewBox="0 0 79 79"><defs><style>.cls-1{fill:#d3a874;}</style></defs><title>pizza_2</title><g id="Слой_2" data-name="Слой 2"><g id="Слой_1-2" data-name="Слой 1"><path class="cls-1" d="M36,20a5.53,5.53,0,0,1-5.1-3.39,5.5,5.5,0,0,1,3-7.19,5.53,5.53,0,0,1,7.21,3,5.5,5.5,0,0,1-3,7.19h0A5.5,5.5,0,0,1,36,20Zm0-9a3.52,3.52,0,0,0-3.25,2.17,3.46,3.46,0,0,0,0,2.67,3.53,3.53,0,0,0,4.6,1.89h0a3.5,3.5,0,0,0,1.9-4.57A3.52,3.52,0,0,0,36,11Z"/><path class="cls-1" d="M28.17,31.23c-1.44,0-2.88-1.19-3.7-3.15-.07-.17-.14-.35-.19-.53A6.42,6.42,0,0,1,24,24.42a3,3,0,0,1,1.94-2.49,2.75,2.75,0,0,1,2.15.21,5.56,5.56,0,0,1,2.56,3.32,5.62,5.62,0,0,1-.07,4.21A2.73,2.73,0,0,1,29,31.1,2.61,2.61,0,0,1,28.17,31.23ZM26.73,23.8a.55.55,0,0,0-.18,0c-.39.13-.54.66-.6,1a4.44,4.44,0,0,0,.22,2.15c0,.14.09.26.14.38.56,1.34,1.51,2.06,2,1.88a.77.77,0,0,0,.42-.42,3.7,3.7,0,0,0,0-2.69h0a3.64,3.64,0,0,0-1.56-2.16A1,1,0,0,0,26.73,23.8Z"/><path class="cls-1" d="M44.19,29.68a6.08,6.08,0,0,1-4.43-2.37,5.37,5.37,0,0,1-1.22-3,3.18,3.18,0,0,1,1.57-3C42,20.21,44.7,21,46.34,23.18a4.94,4.94,0,0,1,1.16,3.89A3.12,3.12,0,0,1,46,29.21,3.59,3.59,0,0,1,44.19,29.68Zm-2.24-6.86a1.64,1.64,0,0,0-.83.2,1.2,1.2,0,0,0-.58,1.18,3.45,3.45,0,0,0,.8,1.89,3.72,3.72,0,0,0,.26.31c1.06,1.13,2.52,1.59,3.4,1.09a1.11,1.11,0,0,0,.54-.79,3,3,0,0,0-.77-2.28h0A3.78,3.78,0,0,0,41.95,22.82Z"/><path class="cls-1" d="M33.92,56a5.23,5.23,0,0,1-4.42-3.29,5.76,5.76,0,0,1-.22-.55,5.36,5.36,0,0,1-.2-3.26,3.18,3.18,0,0,1,2.44-2.34c2.1-.43,4.43,1.21,5.31,3.76a5,5,0,0,1-.13,4.06,3.11,3.11,0,0,1-2.1,1.56A3.29,3.29,0,0,1,33.92,56ZM32.2,48.5l-.27,0a1.2,1.2,0,0,0-.92.94,3.4,3.4,0,0,0,.16,2,3.9,3.9,0,0,0,.15.38c.65,1.4,1.88,2.3,2.88,2.1a1.11,1.11,0,0,0,.76-.58,3,3,0,0,0,0-2.41h0A3.39,3.39,0,0,0,32.2,48.5Z"/><path class="cls-1" d="M15.48,42.42a7.32,7.32,0,0,1-6.75-4.48,7.27,7.27,0,0,1,3.94-9.52h0a7.32,7.32,0,0,1,9.55,3.92,7.28,7.28,0,0,1-3.94,9.52A7.28,7.28,0,0,1,15.48,42.42Zm0-12.56a5.3,5.3,0,0,0-2,.41h0a5.27,5.27,0,0,0-2.86,6.9A5.31,5.31,0,0,0,17.51,40a5.28,5.28,0,0,0,2.86-6.9A5.31,5.31,0,0,0,15.46,29.86Z"/><path class="cls-1" d="M15.58,55.53a2.6,2.6,0,0,1-1.39-.39,2.64,2.64,0,0,1-1-1.25,5.3,5.3,0,0,1,.76-4.62A6.51,6.51,0,0,1,16.15,47a3.07,3.07,0,0,1,3.16-.11h0a2.69,2.69,0,0,1,1.18,1.73,5.69,5.69,0,0,1-.89,4.14A5.14,5.14,0,0,1,15.58,55.53Zm2.33-7a1.72,1.72,0,0,0-.78.25,4.49,4.49,0,0,0-1.52,1.54A3.45,3.45,0,0,0,15,53.12a.63.63,0,0,0,.25.32c.48.3,1.72-.2,2.65-1.7a3.8,3.8,0,0,0,.64-2.62.78.78,0,0,0-.28-.49A.65.65,0,0,0,17.91,48.54Z"/><path class="cls-1" d="M26.5,72.24l-11.69-8L16.17,62a7.22,7.22,0,0,1,3.67-2.44h0a7.27,7.27,0,0,1,8.3,10.63,7.4,7.4,0,0,1-1,1.39Zm-9-8.6,8.66,5.94.22-.35a5.31,5.31,0,0,0,.52-4.08,5.28,5.28,0,0,0-6.53-3.63h0a5.23,5.23,0,0,0-2.62,1.72Z"/><path class="cls-1" d="M40.3,67.67a5.55,5.55,0,0,1-5.12-3.4,5.52,5.52,0,0,1,3-7.23,5.56,5.56,0,0,1,7.24,3,5.53,5.53,0,0,1-3,7.23A5.54,5.54,0,0,1,40.3,67.67ZM37,63.5a3.55,3.55,0,0,0,4.64,1.9,3.53,3.53,0,0,0,1.91-4.61,3.55,3.55,0,0,0-4.63-1.9A3.52,3.52,0,0,0,37,63.5Z"/><path class="cls-1" d="M55.23,22.63h-.07c-1.47,0-2.75-1.49-3.1-3.53a4.64,4.64,0,0,1,.6-3.44,2.44,2.44,0,0,1,1.59-1h0c1.61-.26,3.17,1.28,3.55,3.5s-.53,4.2-2.19,4.48A2.16,2.16,0,0,1,55.23,22.63Zm-.65-6a.49.49,0,0,0-.29.22A2.79,2.79,0,0,0,54,18.76c.2,1.19.83,1.86,1.19,1.87s.83-.93.61-2.18S54.9,16.57,54.58,16.59Z"/><path class="cls-1" d="M25.27,52.46,24,50.29a7.28,7.28,0,0,1,8-10.17h0a7.31,7.31,0,0,1,4.72,3.14,7.43,7.43,0,0,1,.78,1.55l.29.81Zm.47-3.06.24.4,9.22-5.08L35,44.37a5.32,5.32,0,0,0-3.42-2.28h0a5.3,5.3,0,0,0-6.2,4.21A5.2,5.2,0,0,0,25.74,49.4Z"/><path class="cls-1" d="M46.63,35.67a6.87,6.87,0,0,1-5.67-3L40.48,32l9.69-9.16,1.75,1.69a6.72,6.72,0,0,1,1.53,3.84,6.86,6.86,0,0,1-6.38,7.3Zm-3.47-3.45.22.21a4.86,4.86,0,0,0,8.08-3.94,4.74,4.74,0,0,0-1-2.66l-.26-.25Z"/><path class="cls-1" d="M79,39.5A39.55,39.55,0,1,0,57.43,74.68l-.86-1.81h0l-.85-1.81-.85-1.81L40.81,39.5,72,47.5,74,48l1.94.5,1.85.47.05-.21.08,0A39.43,39.43,0,0,0,79,39.5Zm-41.81-3L53.06,70.12A33.55,33.55,0,1,1,72.44,45.54ZM74.39,46A35.53,35.53,0,1,0,53.92,71.93l.85,1.81a37.53,37.53,0,1,1,21.56-27.2Z"/><circle class="cls-1" cx="14" cy="33" r="1"/><circle class="cls-1" cx="14" cy="38" r="1"/><circle class="cls-1" cx="18" cy="35" r="1"/><path class="cls-1" d="M63.48,41.42a7.32,7.32,0,0,1-6.75-4.48,7.27,7.27,0,0,1,3.94-9.52h0a7.32,7.32,0,0,1,9.55,3.92,7.28,7.28,0,0,1-3.94,9.52A7.28,7.28,0,0,1,63.48,41.42Zm0-12.56a5.3,5.3,0,0,0-2,.41h0a5.27,5.27,0,0,0-2.86,6.9A5.31,5.31,0,0,0,65.51,39a5.28,5.28,0,0,0,2.86-6.9A5.31,5.31,0,0,0,63.46,28.86Z"/><circle class="cls-1" cx="62" cy="32" r="1"/><circle class="cls-1" cx="62" cy="37" r="1"/><circle class="cls-1" cx="66" cy="34" r="1"/></g></g></svg>