<svg id="Слой_1" data-name="Слой 1" xmlns="http://www.w3.org/2000/svg" viewBox="0 0 150 150"><defs><style>.cls-1{fill-rule:evenodd;}</style></defs><title>150_150_iconki_geogia</title><path class="cls-1" d="M123.07,95.64l-8.4,47.72-.29,1.63H30.26L30,143.36l-8.4-47.72L9.11,117.49l-3.4-1.92,14.65-25.7-1.53-2.32C14.81,81.43,14,77.06,13,71.83a79.58,79.58,0,0,0-2-8.51l-.28.18L9.13,64.57,8.06,62.94,5.48,59a4.68,4.68,0,0,1,1.4-6.78l6.31-4.16,6.31-4.15a4.87,4.87,0,0,1,3.7-.8,4.93,4.93,0,0,1,3.16,2.3l2.51,3.83L30,50.88,28.32,52l-.28.18a81.27,81.27,0,0,0,7.05,5.17,47.31,47.31,0,0,1,7.52,5.85,7.3,7.3,0,0,1,4.16-2.31L43.12,54l3.46-1.84L50.76,60c4.16-1.5,7.43.65,10.24,3.58l6.24-20A15.11,15.11,0,0,1,80.69,32.51l8-23.69L89.26,7l1.83.57,9.42,2.94,1.82.57-.53,1.83-6.92,24a15.12,15.12,0,0,1,4.76,16.75l-5.31,17a44.47,44.47,0,0,1,21.33-9.29,24.7,24.7,0,0,1,9.42.51,14,14,0,0,1,7,4.17c2.59,3,2.67,6.87.88,11.28-1.56,3.83-4.6,8.11-8.64,12.54l14.65,25.68-3.4,1.92L123.07,95.64ZM64,67.08l.18.23c.78,1,1.52,1.88,2.21,2.61l1.39,1.48c3.74,3.94,7.71,7.94,9,13.4a18.3,18.3,0,0,1,.5,3.54h2.82a46,46,0,0,1,8.48-12.45l2-6.44L65.7,61.67,64,67.08Zm20.78-34.5a19.24,19.24,0,0,1,3.43.74,20,20,0,0,1,3.25,1.34l6-21-5.77-1.81-7,20.71Zm7,33.13L95.9,52.53A11.41,11.41,0,0,0,92,39.61a15.67,15.67,0,0,0-10.4-3.24A11.38,11.38,0,0,0,71,44.75L66.86,57.93l24.93,7.78ZM24,88.34H34.42a52.58,52.58,0,0,1,2.61-10l.63-1.93c.32-1,.59-2.12.87-3.3a42.14,42.14,0,0,1,1.95-6.51,41,41,0,0,0-7.58-6,78.49,78.49,0,0,1-8.26-6.17l-5.1,3.35-5.1,3.36a78.16,78.16,0,0,1,2.4,10c.91,4.82,1.67,8.84,5.26,14.29L24,88.34ZM10.25,59.17l7.15-4.71,7.14-4.7L23,47.46c-.42-.64-.83-.65-1.44-.24l-6.26,4.11L9,55.49a1,1,0,0,0-.51.61,1.08,1.08,0,0,0,.23.77l1.51,2.3ZM84.47,88.34h35.92c4.24-4.48,7.4-8.77,8.91-12.46,1.22-3,1.29-5.53-.21-7.25a10,10,0,0,0-5-3,20.65,20.65,0,0,0-7.91-.41,35.36,35.36,0,0,0-4,.78c.41.23.83.47,1.23.73A26.39,26.39,0,0,1,119.27,72l-3,2.52a22.7,22.7,0,0,0-5-4.48,17,17,0,0,0-4.72-2.12,44.92,44.92,0,0,0-9.85,5.87,46.76,46.76,0,0,0-4.74,4.26,31.52,31.52,0,0,1,4.72.14,35.13,35.13,0,0,1,10.94,3L106,84.72a31.25,31.25,0,0,0-9.72-2.63,23.82,23.82,0,0,0-8.14.44,40.25,40.25,0,0,0-3.64,5.81Zm-46.11,0h35A13.36,13.36,0,0,0,73,85.73C72,81.28,68,77.3,65,74.09L63.55,72.6c-.79-.84-1.58-1.82-2.4-2.84-2.93-3.62-6.39-7.91-10.44-5.39l-.58.36-.67-.08c-4.75-.53-6,4.81-7.13,9.34-.31,1.29-.61,2.53-.95,3.6-.43,1.32-.5,1.55-.63,1.94a54.26,54.26,0,0,0-2.39,8.81Zm47.72,52.73,1.35-20.18,3.9.26L90,141.07h21.1l8.59-48.81H25l8.59,48.81h21.1l-1.33-19.92,3.9-.26,1.35,20.18Z"/></svg>