<?xml version="1.0" encoding="utf-8"?>
<!-- Generator: Adobe Illustrator 16.0.0, SVG Export Plug-In . SVG Version: 6.00 Build 0)  -->
<!DOCTYPE svg PUBLIC "-//W3C//DTD SVG 1.1//EN" "http://www.w3.org/Graphics/SVG/1.1/DTD/svg11.dtd">
<svg version="1.1" id="Слой_1" xmlns="http://www.w3.org/2000/svg" xmlns:xlink="http://www.w3.org/1999/xlink" x="0px" y="0px"
	 width="91.212px" height="49.005px" viewBox="0 7.795 91.212 49.005" enable-background="new 0 7.795 91.212 49.005"
	 xml:space="preserve">
<title>salad</title>
<g id="Слой_2">
	<g id="Слой_1-2">
		<path fill="#D3A874" d="M27.3,44.1c-1.4-0.101-2.8-0.3-4.1-0.7c-0.5-0.199-1.1,0.1-1.3,0.6C21.7,44.5,22,45.1,22.5,45.3h0.1
			c1.5,0.4,3,0.699,4.6,0.8l0,0c0.6,0,1-0.399,1-1s-0.4-1-1-1H27.3z"/>
		<path fill="#D3A874" d="M18.4,41.9c-5.3-1-9.4-6.1-9.4-6.1c-0.4-0.4-1-0.5-1.4-0.1C7.2,36,7.1,36.6,7.4,37.1
			c0.2,0.2,4.6,5.7,10.6,6.8h0.2c0.6,0.1,1-0.4,1.1-0.9C19.3,42.4,18.9,42,18.4,41.9L18.4,41.9z"/>
		<path fill="#D3A874" d="M11,18.9c-2.7,1.4-4.5,3.9-4.9,6.9c0,0.5,0.4,1,0.9,1.1h0.1c0.5,0,1-0.4,1-0.9c0.3-2.3,1.7-4.3,3.8-5.3
			c0.5-0.2,0.7-0.9,0.4-1.3C12.1,18.9,11.5,18.7,11,18.9z"/>
		<path fill="#D3A874" d="M86.4,30.1h-3.5c9.601-7.9,8.3-20.8,8.2-21.4c-0.1-0.5-0.5-0.9-1-0.9c-10.4,0-18,5-19.6,6.6
			C68.9,16,67.1,17.8,66.1,20c-0.7,1.6-1.7,5.1-1.7,5.1s-0.899-4.2-1.7-5.6c-0.8-1.4-2.199-3.6-5.3-5.7
			c-3.101-2.1-7.601-3.4-11.7-3.3c-0.5,0-1.1,0-1.6,0.1s-0.9,0.5-0.9,1c0,0.8,0,1.5,0.1,2.2c-6.3-4-14.6-2.1-18.6,4.1
			c-0.6,0.9-1,1.8-1.3,2.8c-1.9-3.7-5.7-6-9.8-6h-0.3L17,9.4C17.3,9,17.3,8.3,16.8,8c-0.4-0.3-1.1-0.3-1.4,0.2c0,0,0,0.1-0.1,0.1
			l-4,5.7l-6.5-3.6c-0.5-0.3-1.1-0.1-1.4,0.4c-0.3,0.5-0.2,1.2,0.3,1.4l6,3.3C4,17.6,1,23.9,3.1,29.6C3.2,29.701,3.2,29.9,3.3,30H1
			c-0.6,0-1,0.4-1,1V31.1C1.1,44.8,18.5,50.3,25.7,51V53.8c0,1.699,1.3,3,3,3h30c1.7,0,3-1.301,3-3v-2.7
			c7.4-0.601,24.6-6,25.7-19.899C87.4,30.6,87,30.1,86.4,30.1L86.4,30.1z M49.2,27.9c0.9,0.8,1.9,1.5,3,2.1h-3.6
			C48.9,29.4,49.1,28.7,49.2,27.9z M89.2,9.8c0.1,3.1-0.199,13.5-8.6,19.5h-9.1l8.6-8.6c0.4-0.4,0.3-1.1-0.1-1.4
			c-0.4-0.3-0.9-0.3-1.301,0l-9.3,9.3c-0.2,0.2-0.3,0.399-0.3,0.7h-3.9C66.1,21.7,70.7,10.2,89.2,9.8L89.2,9.8z M45.1,12.7h0.6
			c5,0,16.099,1.7,17.4,16.4l-8.7-8.6c-0.399-0.4-1-0.4-1.399,0c-0.4,0.4-0.4,1,0,1.4l0,0l7.6,7.4h-5.2c-2.3-0.8-4.3-2.2-5.899-4
			c-2.301-2.8-3.8-6.2-4.101-9.8C45.2,14.7,45.1,13.7,45.1,12.7z M36,13.8c2.8,0,5.4,1,7.5,2.8c0.5,3.4,1.8,6.7,4,9.4
			c-0.101,1.4-0.4,2.7-1,4h-4l-3.6-3.5c-0.4-0.4-1-0.4-1.4,0s-0.4,1,0,1.4l2.1,2.1h-7.2l2.1-2.1c0.4-0.4,0.4-1,0-1.4s-1-0.4-1.4,0
			L29.6,30h-4C23,24.2,25.5,17.4,31.3,14.8C32.7,14.2,34.3,13.8,36,13.8z M4.5,25.8c0-5,4-9,9-9s9,4,9,9c0,1.5-0.4,3-1.1,4.3H5.5
			C4.8,28.8,4.5,27.3,4.5,25.8L4.5,25.8z M60.7,49.1c-0.6,0-1,0.399-1,1v3.7c0,0.6-0.4,1-1,1h-30c-0.6,0-1-0.4-1-1v-3.7
			c0-0.601-0.4-1-1-1c-5.8-0.2-22.7-4.8-24.6-17h83.1C83.4,44.4,66.5,48.9,60.7,49.1z"/>
		<path fill="#D3A874" d="M33,23.5c0.4,0.4,1.1,0.3,1.4-0.1c0.3-0.4,0.3-0.9,0-1.3l-3.5-3.5c-0.4-0.4-1-0.4-1.4,0s-0.4,1,0,1.4l0,0
			L33,23.5z"/>
		<path fill="#D3A874" d="M38.2,23.8c0.3,0,0.5-0.1,0.7-0.3l3.5-3.5c0.4-0.4,0.4-1,0-1.4s-1-0.4-1.4,0l-3.5,3.5
			c-0.4,0.4-0.4,1,0,1.4C37.6,23.7,37.9,23.8,38.2,23.8L38.2,23.8z"/>
	</g>
</g>
</svg>
