<svg xmlns="http://www.w3.org/2000/svg" viewBox="0 0 51.02 71.68"><defs><style>.cls-1{fill:#d3a874;}</style></defs><title>sushi_2</title><g id="Слой_2" data-name="Слой 2"><g id="Слой_1-2" data-name="Слой 1"><path class="cls-1" d="M45.05,49H35.9A5.89,5.89,0,0,0,30,54.93v9.19A5.89,5.89,0,0,0,35.9,70h9.15a5.89,5.89,0,0,0,5.87-5.89V54.93A6,6,0,0,0,45.05,49Zm3.88,15.08A3.89,3.89,0,0,1,45.05,68H35.9A3.89,3.89,0,0,1,32,64.12V54.93A3.89,3.89,0,0,1,35.9,51h9.15a3.89,3.89,0,0,1,3.88,3.9Z"/><path class="cls-1" d="M40.48,52.74a6.89,6.89,0,1,0,6.86,6.89A7,7,0,0,0,40.48,52.74Zm-2.69,7.69a3.16,3.16,0,0,0-.6,2c0,.3.1.6.1.9a4.71,4.71,0,0,1,0-7.39,2.49,2.49,0,0,0-.1.9,3.93,3.93,0,0,0,.6,2,1.4,1.4,0,0,1,.3.9C38.09,60.13,38,60.13,37.79,60.43Zm3.38,1.1a1.5,1.5,0,0,1,0,1.8,2.81,2.81,0,0,0-.5,1.1H40a2.81,2.81,0,0,0-.5-1.1,1.5,1.5,0,0,1,0-1.8,3.16,3.16,0,0,0,.6-2,3.94,3.94,0,0,0-.6-2,1.5,1.5,0,0,1,0-1.8,2.81,2.81,0,0,0,.5-1.1h.7a2.81,2.81,0,0,0,.5,1.1,1.5,1.5,0,0,1,0,1.8,3.16,3.16,0,0,0-.6,2A3.93,3.93,0,0,0,41.17,61.52Zm2.19,1.9a3,3,0,0,0,.2-1,3.93,3.93,0,0,0-.6-2,1.5,1.5,0,0,1,0-1.8,3.16,3.16,0,0,0,.6-2,3,3,0,0,0-.2-1,5,5,0,0,1,0,7.79Z"/><path class="cls-1" d="M44.36.1H33.81a6.68,6.68,0,0,0-6.66,6.69V17.38a6.68,6.68,0,0,0,6.66,6.69H44.36A6.68,6.68,0,0,0,51,17.38V6.79A6.68,6.68,0,0,0,44.36.1ZM49,17.38a4.68,4.68,0,0,1-4.67,4.69H33.81a4.68,4.68,0,0,1-4.67-4.69V6.79A4.68,4.68,0,0,1,33.81,2.1H44.36A4.68,4.68,0,0,1,49,6.79Z"/><path class="cls-1" d="M39.09,19.78a7.69,7.69,0,0,1,0-15.38,7.78,7.78,0,0,1,5.54,2.34,7.37,7.37,0,0,1,2.12,5.38A7.68,7.68,0,0,1,39.09,19.78Zm0-13.38a5.69,5.69,0,1,0,5.66,5.69,5.41,5.41,0,0,0-1.55-4A5.77,5.77,0,0,0,39.09,6.39Z"/><path class="cls-1" d="M6.76,0A6.68,6.68,0,0,0,.1,6.69V17.48a6.68,6.68,0,0,0,6.66,6.69H17.5a6.68,6.68,0,0,0,6.66-6.69V6.69A6.68,6.68,0,0,0,17.5,0ZM22.28,6.69v2.8H20.79a.94.94,0,0,0-1,1,.94.94,0,0,0,1,1h1.49v5.89a4.68,4.68,0,0,1-4.67,4.69v-1.7a1,1,0,1,0-2,0v1.7H6.86a4.59,4.59,0,0,1-4.18-2.6.9.9,0,0,0,.7.3.9.9,0,0,0,.7-.3l1.29-1.3a1,1,0,0,0,0-1.4,1,1,0,0,0-1.39,0l-1.29,1.3a.87.87,0,0,0-.3.6,5.08,5.08,0,0,1-.2-1.3V6.69A4.19,4.19,0,0,1,3.08,4l.89.9a1.07,1.07,0,0,0,.7.3,1.07,1.07,0,0,0,.7-.3,1,1,0,0,0,0-1.4l-.8-.8A4.77,4.77,0,0,1,7,2H12v.8a1,1,0,1,0,2,0V2H17.5A4.76,4.76,0,0,1,22.28,6.69Z"/><path class="cls-1" d="M9.85,4.69,8.65,3.5a1,1,0,0,0-1.39,0,1,1,0,0,0,0,1.4l.7.7a5.78,5.78,0,0,0-1.19,1,8,8,0,0,0-2.29,5.69h-.8a1,1,0,0,0,0,2H4.77a9.16,9.16,0,0,0,1.89,3.3,6.44,6.44,0,0,0,.89.8l-1,1a1,1,0,0,0,0,1.4,1.07,1.07,0,0,0,.7.3,1.07,1.07,0,0,0,.7-.3l1.29-1.3c.1-.1.1-.1.1-.2a8.6,8.6,0,0,0,2.78.5,7.75,7.75,0,0,0,5.47-2.3,7.86,7.86,0,0,0,0-11A7.7,7.7,0,0,0,9.85,4.69Zm6.37,11.49a5.69,5.69,0,0,1-8.16,0A5.75,5.75,0,0,1,8.06,8a5.69,5.69,0,0,1,8.16,0A5.75,5.75,0,0,1,16.21,16.18Z"/><path class="cls-1" d="M14.92,3.5a.94.94,0,0,0,1,1H17.7a.94.94,0,0,0,1-1,.94.94,0,0,0-1-1H15.91A1.07,1.07,0,0,0,14.92,3.5Z"/><path class="cls-1" d="M19.49,17.48a1,1,0,0,0-1.39,0,1,1,0,0,0,0,1.4l1.29,1.3a1,1,0,0,0,1.39,0,1,1,0,0,0,0-1.4Z"/><path class="cls-1" d="M45.05,26H35.8a6,6,0,0,0-6,6v9.29a6,6,0,0,0,6,6h9.25a6,6,0,0,0,6-6V32A6,6,0,0,0,45.05,26Zm4,15.28a4,4,0,0,1-4,4H35.8a4,4,0,0,1-4-4V32a4,4,0,0,1,4-4h9.25a4,4,0,0,1,4,4Z"/><path class="cls-1" d="M40.48,30.56a6,6,0,1,0,6,6A6,6,0,0,0,40.48,30.56Zm-1,9.89a4,4,0,0,1-3-3.9,4.07,4.07,0,0,1,3-3.9Zm2,0V32.66a4,4,0,0,1,0,7.79Z"/><path class="cls-1" d="M21.48,27.47A6.59,6.59,0,1,0,28,34.06,6.57,6.57,0,0,0,21.48,27.47Zm0,11.29a4.57,4.57,0,0,1-4.57-4.59,4.57,4.57,0,1,1,4.57,4.59Z"/><path class="cls-1" d="M21.48,31.16a2.9,2.9,0,1,0,2.88,2.9A2.89,2.89,0,0,0,21.48,31.16Zm0,3.9a.9.9,0,1,1,.9-.9A.89.89,0,0,1,21.48,35.06Z"/><path class="cls-1" d="M21.48,42.45A6.59,6.59,0,1,0,28,49,6.57,6.57,0,0,0,21.48,42.45Zm0,11.29a4.57,4.57,0,0,1-4.57-4.59,4.57,4.57,0,1,1,4.57,4.59Z"/><path class="cls-1" d="M21.48,46.14A2.9,2.9,0,1,0,24.37,49,2.89,2.89,0,0,0,21.48,46.14Zm0,3.9a.9.9,0,1,1,.9-.9A.89.89,0,0,1,21.48,50Z"/><path class="cls-1" d="M6.56,27.47a6.59,6.59,0,1,0,6.56,6.59A6.57,6.57,0,0,0,6.56,27.47Zm0,11.29A4.57,4.57,0,0,1,2,34.16a4.64,4.64,0,0,1,4.57-4.59,4.64,4.64,0,0,1,4.57,4.59A4.57,4.57,0,0,1,6.56,38.75Z"/><path class="cls-1" d="M6.56,31.16a2.9,2.9,0,1,0,2.88,2.9A2.89,2.89,0,0,0,6.56,31.16Zm0,3.9a.9.9,0,1,1,.9-.9A.89.89,0,0,1,6.56,35.06Z"/><path class="cls-1" d="M6.56,42.45A6.59,6.59,0,1,0,13.13,49,6.57,6.57,0,0,0,6.56,42.45Zm0,11.29A4.57,4.57,0,0,1,2,49.14a4.64,4.64,0,0,1,4.57-4.59,4.64,4.64,0,0,1,4.57,4.59A4.57,4.57,0,0,1,6.56,53.73Z"/><path class="cls-1" d="M6.56,46.14A2.9,2.9,0,1,0,9.45,49,2.89,2.89,0,0,0,6.56,46.14Zm0,3.9a.9.9,0,1,1,.9-.9A.89.89,0,0,1,6.56,50Z"/><path class="cls-1" d="M11.26,71.68C5.09,71.68.77,69,.77,65.1s4.31-6.57,10.49-6.57c4.92,0,16.46,2.24,16.46,6.57S16.19,71.68,11.26,71.68Zm0-11.15c-4.85,0-8.5,2-8.5,4.58s3.66,4.58,8.5,4.58c6.57,0,14.47-2.81,14.47-4.58S17.83,60.53,11.26,60.53Z"/><path class="cls-1" d="M5.8,70.57c-2.41-3.63.66-10.42,1-11.18l1.8.85C7.78,62,5.93,67.17,7.46,69.46Z"/><path class="cls-1" d="M9.82,70.76c-2.41-3.63.66-10.42,1-11.18l1.8.85c-.84,1.79-2.68,6.93-1.16,9.22Z"/><path class="cls-1" d="M13.83,70.95c-2.42-3.63.66-10.42,1-11.18l1.8.85c-.84,1.79-2.68,6.93-1.16,9.22Z"/><path class="cls-1" d="M17.82,70.1c-2-3.43.72-9.47,1-10.15l1.79.86c-.75,1.57-2.41,6.13-1.13,8.26Z"/><path class="cls-1" d="M21.78,68.17c-1.42-3.36,1.1-6.75,1.21-6.9l1.58,1.21-.79-.6.79.6s-1.93,2.63-1,4.91Z"/><rect class="cls-1" x="32.95" y="11.09" width="12.31" height="2"/><rect class="cls-1" x="32.53" y="14.09" width="13" height="2"/><rect class="cls-1" x="33.62" y="8.09" width="10.91" height="2"/></g></g></svg>